<svg width="213" height="28" viewBox="0 0 213 28" fill="none" xmlns="http://www.w3.org/2000/svg">
<path d="M7.44112 10.4372L1.90827 7.60413L1.52956 8.18574L6.59413 10.779C6.59413 10.779 2.89404 12.5442 0.523197 13.6753L12.3219 13.8767L6.98191 11.1423L7.44112 10.4372ZM12.8488 14.0068L0 13.7873L6.31378 10.7754L1.34296 8.23008L1.85812 7.43877L7.62728 10.3928L7.16837 11.0981L12.8488 14.0068ZM10.4956 7.25097L7.30125 2.34397L6.64547 2.67984L9.56948 7.17152L2.67908 6.98756L12.7835 12.3939L9.70028 7.65811L10.4956 7.25097ZM13.1665 12.7405L2.16273 6.85281L9.32856 7.04404L6.45887 2.63549L7.35125 2.17874L10.6821 7.29532L9.88688 7.70245L13.1665 12.7405ZM14.9373 0.180275H14.1799V5.3668L8.31654 2.15195L14.0189 11.3151V5.84639H14.9373V0.180275ZM14.1555 5.96741V11.7846L7.94528 1.80618L14.0433 5.1497V0.0591237H15.0736V5.96741H14.1555ZM19.1901 5.84824L15.9246 0.464148L15.6974 10.9283L18.7805 6.19229L19.5757 6.59956L22.7701 1.69255L22.1143 1.35668L19.1901 5.84824ZM19.6257 6.76465L18.8305 6.35752L15.5508 11.3954L15.7984 0L19.1945 5.5996L22.0642 1.19132L22.9565 1.64807L19.6257 6.76465ZM23.2577 8.48703L23.4652 2.37604L17.3689 11.3375L22.7089 8.60317L23.1681 9.30843L28.701 6.47537L28.3223 5.89363L23.2577 8.48703ZM28.8873 6.51984L23.1181 9.47392L22.6591 8.76866L16.9786 11.6773L23.6172 1.91822L23.4016 8.27363L28.3721 5.72827L28.8873 6.51984ZM31.2088 13.3083H24.6837V12.494H18.3208L29.1123 7.21112L25.4148 12.5155H31.2088V13.3083ZM31.0822 14.0674L24.8898 17.0214L29.9075 19.5907L29.4605 20.2772L23.8095 17.3837L24.2685 16.6784L18.7583 13.857L31.0822 14.0674ZM28.923 20.8783L21.8947 20.6907L24.7916 25.1408L24.0175 25.5372L20.755 20.5254L21.5502 20.1182L18.3689 15.2312L28.923 20.8783ZM23.2129 25.8195L17.2323 22.5404V27.6788H16.3385V21.8916H17.2567V16.2487L23.2129 25.8195ZM15.4824 27.5666L12.1515 22.0745L9.25461 26.5247L8.48053 26.1282L11.7431 21.1164L12.5383 21.5235L15.7196 16.6366L15.4824 27.5666ZM7.80272 25.6515L8.01432 19.4183L2.99663 21.9874L2.54962 21.301L8.20062 18.4075L8.65984 19.1127L14.1701 16.2912L7.80272 25.6515ZM6.59175 15.3653V14.5508H0.203267V15.2225H6.05129L2.42641 20.4228L12.7579 15.3653H6.59175ZM2.03639 20.7519L5.80636 15.3437H0.0665157V14.4299H6.72835V15.2443H13.2878L2.03639 20.7519Z" fill="white"/>
<path d="M43.5302 17.2559V20.846C43.5302 25.1695 41.8528 27.6402 38.6178 27.6402C35.3829 27.6402 33.7054 25.1695 33.7054 20.846V6.79422C33.7054 2.47069 35.3829 0 38.6178 0C41.8528 0 43.5302 2.47069 43.5302 6.79422V9.41924H40.415V6.5241C40.415 4.59383 39.756 3.86036 38.7076 3.86036C37.6592 3.86036 37.0003 4.59383 37.0003 6.5241V21.1163C37.0003 23.0466 37.6592 23.7413 38.7076 23.7413C39.756 23.7413 40.415 23.0464 40.415 21.1163V17.2559H43.5302ZM49.0896 0.308837V21.1548C49.0896 23.0851 49.7486 23.7799 50.797 23.7799C51.8453 23.7799 52.5043 23.0849 52.5043 21.1548V0.308837H55.6196V20.8845C55.6196 25.2081 53.9421 27.6788 50.7072 27.6788C47.4722 27.6788 45.7948 25.2081 45.7948 20.8845V0.308837H49.0896ZM57.3274 0.308837H67.5116V4.1692H64.067V27.3314H60.7722V4.1692H57.3275L57.3274 0.308837ZM68.3665 0.308837H78.5508V4.1692H75.1061V27.3314H71.8113V4.1692H68.3667L68.3665 0.308837ZM80.3641 0.308837H83.6589V27.3314H80.3641V0.308837ZM89.1906 7.75945V27.3316H86.2252V0.308837H90.3587L93.7435 16.4838V0.308837H96.679V27.3314H93.2942L89.1906 7.75945ZM104.438 12.276H109.051V20.846C109.051 25.1695 107.374 27.6402 104.139 27.6402C100.904 27.6402 99.2264 25.1695 99.2264 20.846V6.79422C99.2264 2.47069 100.904 0 104.139 0C107.374 0 109.051 2.47069 109.051 6.79422V9.41924H105.936V6.5241C105.936 4.59383 105.277 3.86036 104.229 3.86036C103.18 3.86036 102.521 4.59383 102.521 6.5241V21.1163C102.521 23.0466 103.18 23.7413 104.229 23.7413C105.277 23.7413 105.936 23.0464 105.936 21.1163V16.1364H104.438V12.276ZM115.438 0.308837H125.622V4.1692H122.177V27.3314H118.882V4.1692H115.438L115.438 0.308837ZM127.165 6.79422C127.165 2.47069 128.932 0 132.167 0C135.402 0 137.17 2.47069 137.17 6.79422V20.846C137.17 25.1695 135.402 27.6402 132.167 27.6402C128.932 27.6402 127.165 25.1695 127.165 20.846V6.79422ZM130.46 21.1163C130.46 23.0466 131.119 23.78 132.167 23.78C133.216 23.78 133.875 23.0466 133.875 21.1163V6.5241C133.875 4.59383 133.216 3.86036 132.167 3.86036C131.119 3.86036 130.46 4.59383 130.46 6.5241V21.1163ZM139.445 6.79422C139.445 2.47069 141.212 0 144.447 0C147.682 0 149.449 2.47069 149.449 6.79422V20.846C149.449 25.1695 147.682 27.6402 144.447 27.6402C141.212 27.6402 139.445 25.1695 139.445 20.846V6.79422ZM142.74 21.1163C142.74 23.0466 143.399 23.78 144.447 23.78C145.495 23.78 146.154 23.0466 146.154 21.1163V6.5241C146.154 4.59383 145.495 3.86036 144.447 3.86036C143.399 3.86036 142.74 4.59383 142.74 6.5241V21.1163ZM151.994 0.308837H155.289V23.471H160.711V27.3314H151.994L151.994 0.308837ZM166.939 0C170.144 0 171.792 2.47069 171.792 6.79422V7.64347H168.677V6.52392C168.677 4.59364 168.078 3.86018 167.029 3.86018C165.981 3.86018 165.382 4.59364 165.382 6.52392C165.382 12.0828 171.822 13.1251 171.822 20.8458C171.822 25.1693 170.144 27.64 166.909 27.64C163.675 27.64 161.997 25.1693 161.997 20.8458V19.1858H165.112V21.1161C165.112 23.0464 165.771 23.7411 166.82 23.7411C167.868 23.7411 168.527 23.0462 168.527 21.1161C168.527 15.5572 162.087 14.5149 162.087 6.79422C162.087 2.47069 163.734 0 166.939 0ZM178.91 0.308837H182.205V27.3314H178.91V0.308837ZM187.737 7.75945V27.3316H184.771V0.308837H188.905L192.29 16.4838V0.308837H195.225V27.3314H191.84L187.737 7.75945ZM207.597 17.2559V20.846C207.597 25.1695 205.92 27.6402 202.685 27.6402C199.45 27.6402 197.772 25.1695 197.772 20.846V6.79422C197.772 2.47069 199.45 0 202.685 0C205.92 0 207.597 2.47069 207.597 6.79422V9.41924H204.482V6.5241C204.482 4.59383 203.823 3.86036 202.775 3.86036C201.726 3.86036 201.067 4.59383 201.067 6.5241V21.1163C201.067 23.0466 201.726 23.7413 202.775 23.7413C203.823 23.7413 204.482 23.0464 204.482 21.1163V17.2559H207.597ZM213 23.2394V27.3314H209.825V23.2394H213Z" fill="white"/>
</svg>
